<svg xmlns="http://www.w3.org/2000/svg" xml:space="preserve"  width="16" height="16" style="enable-background:new 0 0 512 512" viewBox="0 0 512 512">
  <path d="M294.656 13.014a10.667 10.667 0 0 0-9.045-2.133l-277.333 64A10.668 10.668 0 0 0 0 85.377v362.667a10.667 10.667 0 0 0 9.045 10.539l277.333 42.667c5.823.895 11.269-3.099 12.164-8.921.082-.535.124-1.076.124-1.617V21.377a10.661 10.661 0 0 0-4.01-8.363z" style="fill:#1565c0"/>
    <path d="M501.334 458.71H288c-5.891 0-10.667-4.776-10.667-10.667s4.776-10.667 10.667-10.667h202.667V74.71H288c-5.891 0-10.667-4.776-10.667-10.667S282.109 53.377 288 53.377h213.333c5.891 0 10.667 4.776 10.667 10.667v384c0 5.891-4.775 10.666-10.666 10.666z" style="fill:#1565c0"/>
    <path d="M181.334 352.044a10.666 10.666 0 0 1-10.24-7.723L138.667 230.87 106.24 344.321c-2.342 5.661-8.83 8.352-14.492 6.01a11.092 11.092 0 0 1-6.01-6.01L43.072 194.988c-1.786-5.614 1.318-11.612 6.932-13.398 5.614-1.786 11.612 1.318 13.398 6.932.063.198.12.398.172.599L96 302.55l32.427-113.45c2.342-5.661 8.83-8.352 14.492-6.01a11.092 11.092 0 0 1 6.01 6.01l32.405 113.451 32.427-113.429c1.535-5.614 7.331-8.921 12.945-7.386l.239.068c5.66 1.622 8.935 7.523 7.317 13.184l-42.667 149.333a10.667 10.667 0 0 1-10.261 7.723z" style="fill:#fafafa"/>
    <path d="M458.667 138.71H288c-5.891 0-10.667-4.776-10.667-10.667s4.776-10.667 10.667-10.667h170.667c5.891 0 10.667 4.776 10.667 10.667 0 5.892-4.776 10.667-10.667 10.667zM458.667 202.71H288c-5.891 0-10.667-4.776-10.667-10.667s4.776-10.667 10.667-10.667h170.667c5.891 0 10.667 4.776 10.667 10.667s-4.776 10.667-10.667 10.667zM458.667 266.71H288c-5.891 0-10.667-4.776-10.667-10.667s4.776-10.667 10.667-10.667h170.667c5.891 0 10.667 4.776 10.667 10.667 0 5.892-4.776 10.667-10.667 10.667zM458.667 330.71H288c-5.891 0-10.667-4.776-10.667-10.667s4.776-10.667 10.667-10.667h170.667c5.891 0 10.667 4.776 10.667 10.667 0 5.892-4.776 10.667-10.667 10.667zM458.667 394.71H288c-5.891 0-10.667-4.776-10.667-10.667s4.776-10.667 10.667-10.667h170.667c5.891 0 10.667 4.776 10.667 10.667 0 5.892-4.776 10.667-10.667 10.667z" style="fill:#1565c0"/>
</svg>